<svg xmlns="http://www.w3.org/2000/svg" xmlns:xlink="http://www.w3.org/1999/xlink" viewBox="0 0 100 100"><path fill="#f15b6c" d="M77,40c0,16-27,47-27,47S23,56,23,40c0-14.912,12.088-27,27-27S77,25.088,77,40z"/><circle cx="50" cy="40" r="21" fill="#fefdef"/><path fill="#78a1d1" d="M60,34.923V51H40V34.923L50,28L60,34.923z"/><path fill="#4e6e91" d="M46.5,51v-8.5h7V51H46.5z"/><g><path fill="#1f212b" d="M50,88c-0.289,0-0.564-0.125-0.754-0.343C48.134,86.379,22,56.188,22,40c0-15.439,12.561-28,28-28 s28,12.561,28,28c0,16.188-26.134,46.379-27.246,47.657C50.564,87.875,50.289,88,50,88z M50,14c-14.337,0-26,11.664-26,26 c0,13.962,21.65,40.308,26,45.459C54.35,80.308,76,53.962,76,40C76,25.664,64.337,14,50,14z"/><path fill="#1f212b" d="M50,61c-11.579,0-21-9.42-21-21s9.421-21,21-21c3.427,0,6.702,0.81,9.733,2.407 c0.244,0.129,0.338,0.431,0.209,0.675c-0.13,0.245-0.434,0.337-0.676,0.209C56.381,20.771,53.263,20,50,20 c-11.028,0-20,8.972-20,20s8.972,20,20,20c10.937,0,19.711-8.571,19.975-19.512c0.007-0.276,0.251-0.467,0.512-0.488 c0.276,0.007,0.495,0.236,0.488,0.512C70.697,52,61.484,61,50,61z M69.431,34c-0.209,0-0.404-0.132-0.475-0.341 c-0.332-0.995-0.752-1.979-1.249-2.927c-0.128-0.245-0.033-0.547,0.211-0.675c0.243-0.128,0.547-0.036,0.676,0.211 c0.521,0.994,0.962,2.028,1.312,3.073c0.087,0.262-0.054,0.545-0.316,0.633C69.536,33.992,69.483,34,69.431,34z M66.216,28 c-0.149,0-0.298-0.067-0.396-0.195c-1.139-1.479-2.478-2.792-3.979-3.903c-0.222-0.164-0.269-0.478-0.104-0.699 c0.166-0.222,0.479-0.269,0.7-0.104c1.575,1.166,2.98,2.544,4.177,4.097c0.168,0.219,0.127,0.533-0.092,0.701 C66.43,27.966,66.322,28,66.216,28z"/><path fill="#1f212b" d="M60,52H40c-0.553,0-1-0.448-1-1V34.923c0-0.552,0.447-1,1-1s1,0.448,1,1V50h18V34.923 c0-0.552,0.447-1,1-1s1,0.448,1,1V51C61,51.552,60.553,52,60,52z"/><path fill="#1f212b" d="M57,33.846c-0.553,0-1-0.448-1-1V29c0-0.552,0.447-1,1-1s1,0.448,1,1v3.846 C58,33.398,57.553,33.846,57,33.846z"/><path fill="#1f212b" d="M62.999,38c-0.196,0-0.395-0.058-0.568-0.178L50,29.216l-12.431,8.606 c-0.455,0.314-1.077,0.201-1.392-0.253c-0.314-0.454-0.201-1.077,0.253-1.392l13-9c0.342-0.237,0.797-0.237,1.139,0l13,9 c0.454,0.314,0.567,0.938,0.253,1.392C63.628,37.85,63.316,38,62.999,38z"/><path fill="none" stroke="#1f212b" stroke-linejoin="round" d="M46.5,51v-8.5h7V51"/></g></svg>